<svg width="144" height="41" viewBox="0 0 144 41" fill="none" xmlns="http://www.w3.org/2000/svg">
<g clip-path="url(#clip0_3_4)">
<path d="M18.5 26.8L8.49998 21V26.1L18.4 32L31.5 24.8V27.7L18.4 35L5.89998 27.6V6.6L2.69998 8.4C1.19998 9.3 0.199976 10.9 0.199976 12.7L0.0999756 28C0.0999756 29.8 0.999976 31.4 2.59998 32.3L15.8 40C17.3 40.9 19.2 40.9 20.8 40L34.1 32.4C35.6 31.5 36.6 29.9 36.6 28.1L36.7 16L18.5 26.8Z" fill="url(#paint0_linear_3_4)" stroke="url(#paint1_linear_3_4)" stroke-width="0.2595" stroke-miterlimit="10"/>
<path d="M25 3.1L21 0.8C19.5 -0.1 17.6 -0.1 16 0.8L8.5 5.1V12.9L25 3.1Z" fill="url(#paint2_linear_3_4)" stroke="url(#paint3_linear_3_4)" stroke-width="0.2595" stroke-miterlimit="10"/>
<path d="M8.5 18L18.5 23.8L36.7 13V12.8C36.7 11 35.8 9.4 34.3 8.5L18.4 18L15.7 16.5L31.7 7.1L27.5 4.6L8.5 15.8V18Z" fill="url(#paint4_linear_3_4)" stroke="url(#paint5_linear_3_4)" stroke-width="0.2595" stroke-miterlimit="10"/>
<path d="M45.5181 27V13.1818H50.4435C51.5186 13.1818 52.4092 13.3775 53.1154 13.7688C53.8216 14.1602 54.3501 14.6954 54.701 15.3746C55.0518 16.0494 55.2273 16.8095 55.2273 17.6552C55.2273 18.5053 55.0496 19.27 54.6942 19.9492C54.3434 20.6239 53.8126 21.1592 53.1019 21.555C52.3957 21.9464 51.5073 22.142 50.4368 22.142H47.0497V20.3743H50.2479C50.9271 20.3743 51.4781 20.2573 51.9009 20.0234C52.3237 19.785 52.6341 19.4612 52.832 19.0518C53.0299 18.6425 53.1289 18.177 53.1289 17.6552C53.1289 17.1334 53.0299 16.6701 52.832 16.2653C52.6341 15.8604 52.3215 15.5433 51.8942 15.3139C51.4714 15.0845 50.9136 14.9698 50.2209 14.9698H47.603V27H45.5181ZM57.5095 27V16.6364H59.4594V18.2827H59.5674C59.7563 17.7249 60.0892 17.2863 60.566 16.967C61.0473 16.6431 61.5915 16.4812 62.1988 16.4812C62.3247 16.4812 62.4732 16.4857 62.6441 16.4947C62.8195 16.5037 62.9567 16.5149 63.0557 16.5284V18.4581C62.9747 18.4356 62.8308 18.4109 62.6238 18.3839C62.4169 18.3524 62.21 18.3366 62.0031 18.3366C61.5263 18.3366 61.1012 18.4379 60.7279 18.6403C60.359 18.8382 60.0667 19.1148 59.8508 19.4702C59.6349 19.821 59.5269 20.2214 59.5269 20.6712V27H57.5095ZM68.7958 27.2092C67.8242 27.2092 66.9763 26.9865 66.2521 26.5412C65.5279 26.0959 64.9657 25.4729 64.5653 24.6722C64.165 23.8716 63.9648 22.936 63.9648 21.8654C63.9648 20.7904 64.165 19.8503 64.5653 19.0451C64.9657 18.2399 65.5279 17.6147 66.2521 17.1694C66.9763 16.7241 67.8242 16.5014 68.7958 16.5014C69.7674 16.5014 70.6153 16.7241 71.3395 17.1694C72.0637 17.6147 72.6259 18.2399 73.0263 19.0451C73.4266 19.8503 73.6268 20.7904 73.6268 21.8654C73.6268 22.936 73.4266 23.8716 73.0263 24.6722C72.6259 25.4729 72.0637 26.0959 71.3395 26.5412C70.6153 26.9865 69.7674 27.2092 68.7958 27.2092ZM68.8026 25.5156C69.4323 25.5156 69.9541 25.3492 70.3679 25.0163C70.7817 24.6835 71.0876 24.2404 71.2855 23.6871C71.4879 23.1339 71.5891 22.5244 71.5891 21.8587C71.5891 21.1974 71.4879 20.5902 71.2855 20.0369C71.0876 19.4792 70.7817 19.0316 70.3679 18.6942C69.9541 18.3569 69.4323 18.1882 68.8026 18.1882C68.1683 18.1882 67.642 18.3569 67.2237 18.6942C66.8099 19.0316 66.5018 19.4792 66.2994 20.0369C66.1014 20.5902 66.0025 21.1974 66.0025 21.8587C66.0025 22.5244 66.1014 23.1339 66.2994 23.6871C66.5018 24.2404 66.8099 24.6835 67.2237 25.0163C67.642 25.3492 68.1683 25.5156 68.8026 25.5156ZM75.5683 27V13.1818H81.2764C82.3109 13.1818 83.2038 13.3685 83.955 13.7418C84.7107 14.1107 85.2932 14.6415 85.7025 15.3342C86.1118 16.0224 86.3165 16.8388 86.3165 17.7834C86.3165 18.7415 86.1073 19.5556 85.689 20.2259C85.2707 20.8916 84.6769 21.3999 83.9078 21.7507C83.1386 22.0971 82.2277 22.2702 81.1752 22.2702H77.5654V19.6388H80.5544C81.0582 19.6388 81.4788 19.5736 81.8161 19.4432C82.158 19.3082 82.4166 19.1058 82.5921 18.8359C82.7675 18.5616 82.8552 18.2107 82.8552 17.7834C82.8552 17.3561 82.7675 17.003 82.5921 16.7241C82.4166 16.4407 82.158 16.2293 81.8161 16.0898C81.4743 15.9459 81.0537 15.8739 80.5544 15.8739H78.9081V27H75.5683ZM83.3477 20.6847L86.7888 27H83.1453L79.7718 20.6847H83.3477ZM91.0699 27.1754C90.4086 27.1754 89.8216 27.0652 89.3089 26.8448C88.8006 26.6199 88.398 26.2826 88.1011 25.8327C87.8087 25.3784 87.6626 24.8094 87.6626 24.1257C87.6626 23.55 87.7638 23.0642 87.9662 22.6683C88.1686 22.2725 88.4475 21.9509 88.8028 21.7035C89.1582 21.4561 89.5675 21.2694 90.0308 21.1435C90.4941 21.013 90.9889 20.9253 91.5152 20.8803C92.1044 20.8263 92.579 20.7701 92.9388 20.7116C93.2987 20.6487 93.5596 20.561 93.7215 20.4485C93.8879 20.3316 93.9711 20.1674 93.9711 19.956V19.9222C93.9711 19.5759 93.8519 19.3082 93.6135 19.1193C93.3751 18.9304 93.0535 18.8359 92.6487 18.8359C92.2124 18.8359 91.8615 18.9304 91.5961 19.1193C91.3308 19.3082 91.1621 19.5691 91.0901 19.902L88.0471 19.794C88.1371 19.1643 88.3688 18.602 88.7421 18.1072C89.1199 17.608 89.6372 17.2166 90.2939 16.9332C90.9552 16.6454 91.7491 16.5014 92.6757 16.5014C93.3369 16.5014 93.9464 16.5801 94.5042 16.7376C95.0619 16.8905 95.5477 17.1154 95.9616 17.4123C96.3754 17.7047 96.6948 18.0645 96.9197 18.4918C97.1491 18.9192 97.2638 19.4072 97.2638 19.956V27H94.1601V25.5561H94.0791C93.8947 25.907 93.6585 26.2038 93.3707 26.4467C93.0873 26.6896 92.7522 26.8718 92.3653 26.9933C91.983 27.1147 91.5512 27.1754 91.0699 27.1754ZM92.0887 25.0163C92.444 25.0163 92.7634 24.9444 93.0468 24.8004C93.3347 24.6565 93.5641 24.4586 93.735 24.2067C93.9059 23.9503 93.9914 23.6534 93.9914 23.3161V22.331C93.8969 22.3804 93.7822 22.4254 93.6473 22.4659C93.5168 22.5064 93.3729 22.5446 93.2155 22.5806C93.058 22.6166 92.8961 22.6481 92.7297 22.6751C92.5632 22.7021 92.4036 22.7268 92.2506 22.7493C91.9403 22.7988 91.6749 22.8752 91.4545 22.9787C91.2385 23.0821 91.0721 23.2171 90.9552 23.3835C90.8427 23.5455 90.7865 23.7389 90.7865 23.9638C90.7865 24.3056 90.9079 24.5665 91.1508 24.7464C91.3982 24.9264 91.7108 25.0163 92.0887 25.0163ZM99.3081 27V25.1175L104.112 19.2678V19.2003H99.4768V16.6364H108.046V18.701L103.593 24.3686V24.4361H108.208V27H99.3081ZM110.34 27V16.6364H113.545V18.5256H113.653C113.842 17.8419 114.15 17.3336 114.577 17.0007C115.004 16.6634 115.501 16.4947 116.068 16.4947C116.221 16.4947 116.378 16.5059 116.54 16.5284C116.702 16.5464 116.853 16.5756 116.992 16.6161V19.4837C116.835 19.4297 116.628 19.387 116.372 19.3555C116.12 19.324 115.895 19.3082 115.697 19.3082C115.306 19.3082 114.953 19.396 114.638 19.5714C114.327 19.7423 114.082 19.983 113.902 20.2933C113.727 20.5992 113.639 20.959 113.639 21.3729V27H110.34ZM120.869 27.1754C120.207 27.1754 119.62 27.0652 119.108 26.8448C118.599 26.6199 118.197 26.2826 117.9 25.8327C117.608 25.3784 117.461 24.8094 117.461 24.1257C117.461 23.55 117.563 23.0642 117.765 22.6683C117.967 22.2725 118.246 21.9509 118.602 21.7035C118.957 21.4561 119.366 21.2694 119.83 21.1435C120.293 21.013 120.788 20.9253 121.314 20.8803C121.903 20.8263 122.378 20.7701 122.738 20.7116C123.098 20.6487 123.358 20.561 123.52 20.4485C123.687 20.3316 123.77 20.1674 123.77 19.956V19.9222C123.77 19.5759 123.651 19.3082 123.412 19.1193C123.174 18.9304 122.852 18.8359 122.448 18.8359C122.011 18.8359 121.66 18.9304 121.395 19.1193C121.13 19.3082 120.961 19.5691 120.889 19.902L117.846 19.794C117.936 19.1643 118.168 18.602 118.541 18.1072C118.919 17.608 119.436 17.2166 120.093 16.9332C120.754 16.6454 121.548 16.5014 122.475 16.5014C123.136 16.5014 123.745 16.5801 124.303 16.7376C124.861 16.8905 125.347 17.1154 125.76 17.4123C126.174 17.7047 126.494 18.0645 126.718 18.4918C126.948 18.9192 127.063 19.4072 127.063 19.956V27H123.959V25.5561H123.878C123.694 25.907 123.457 26.2038 123.169 26.4467C122.886 26.6896 122.551 26.8718 122.164 26.9933C121.782 27.1147 121.35 27.1754 120.869 27.1754ZM121.888 25.0163C122.243 25.0163 122.562 24.9444 122.846 24.8004C123.133 24.6565 123.363 24.4586 123.534 24.2067C123.705 23.9503 123.79 23.6534 123.79 23.3161V22.331C123.696 22.3804 123.581 22.4254 123.446 22.4659C123.316 22.5064 123.172 22.5446 123.014 22.5806C122.857 22.6166 122.695 22.6481 122.528 22.6751C122.362 22.7021 122.202 22.7268 122.049 22.7493C121.739 22.7988 121.474 22.8752 121.253 22.9787C121.037 23.0821 120.871 23.2171 120.754 23.3835C120.642 23.5455 120.585 23.7389 120.585 23.9638C120.585 24.3056 120.707 24.5665 120.95 24.7464C121.197 24.9264 121.51 25.0163 121.888 25.0163ZM129.235 27V13.1818H132.109V18.3771H132.197C132.323 18.0982 132.505 17.8149 132.744 17.527C132.987 17.2346 133.301 16.9917 133.688 16.7983C134.08 16.6004 134.565 16.5014 135.146 16.5014C135.901 16.5014 136.599 16.6993 137.237 17.0952C137.876 17.4865 138.387 18.078 138.769 18.8697C139.151 19.6568 139.342 20.6442 139.342 21.8317C139.342 22.9877 139.156 23.9638 138.782 24.7599C138.414 25.5516 137.91 26.1521 137.271 26.5614C136.637 26.9663 135.926 27.1687 135.139 27.1687C134.581 27.1687 134.107 27.0765 133.715 26.892C133.328 26.7076 133.011 26.476 132.764 26.1971C132.517 25.9137 132.328 25.6281 132.197 25.3402H132.069V27H129.235ZM132.049 21.8182C132.049 22.4344 132.134 22.9719 132.305 23.4308C132.476 23.8896 132.723 24.2472 133.047 24.5036C133.371 24.7554 133.765 24.8814 134.228 24.8814C134.696 24.8814 135.092 24.7532 135.416 24.4968C135.739 24.2359 135.985 23.8761 136.151 23.4173C136.322 22.954 136.407 22.4209 136.407 21.8182C136.407 21.2199 136.324 20.6937 136.158 20.2393C135.991 19.785 135.746 19.4297 135.422 19.1733C135.098 18.9169 134.7 18.7887 134.228 18.7887C133.76 18.7887 133.364 18.9124 133.041 19.1598C132.721 19.4072 132.476 19.758 132.305 20.2124C132.134 20.6667 132.049 21.2019 132.049 21.8182Z" fill="white"/>
</g>
<defs>
<linearGradient id="paint0_linear_3_4" x1="0.130865" y1="23.6327" x2="36.6839" y2="23.643" gradientUnits="userSpaceOnUse">
<stop offset="0.00638542" stop-color="#00DEFF"/>
<stop offset="1" stop-color="#7141B1"/>
</linearGradient>
<linearGradient id="paint1_linear_3_4" x1="0.00117798" y1="23.5857" x2="36.8147" y2="23.5961" gradientUnits="userSpaceOnUse">
<stop offset="0.00638522" stop-color="#82E7D7"/>
<stop offset="0.3649" stop-color="#72C9BE"/>
<stop offset="0.5239" stop-color="#64B0B3"/>
<stop offset="1" stop-color="#3C6A95"/>
</linearGradient>
<linearGradient id="paint2_linear_3_4" x1="8.50952" y1="6.50772" x2="24.9942" y2="6.51237" gradientUnits="userSpaceOnUse">
<stop offset="0.00638542" stop-color="#00DEFF"/>
<stop offset="1" stop-color="#7141B1"/>
</linearGradient>
<linearGradient id="paint3_linear_3_4" x1="-0.0702977" y1="6.5542" x2="36.9914" y2="6.56465" gradientUnits="userSpaceOnUse">
<stop offset="0.00638522" stop-color="#82E7D7"/>
<stop offset="0.3649" stop-color="#72C9BE"/>
<stop offset="0.5239" stop-color="#64B0B3"/>
<stop offset="1" stop-color="#3C6A95"/>
</linearGradient>
<linearGradient id="paint4_linear_3_4" x1="8.50714" y1="14.2113" x2="36.7022" y2="14.2193" gradientUnits="userSpaceOnUse">
<stop offset="0.00638542" stop-color="#00DEFF"/>
<stop offset="1" stop-color="#7141B1"/>
</linearGradient>
<linearGradient id="paint5_linear_3_4" x1="-0.0263552" y1="14.2088" x2="36.832" y2="14.2192" gradientUnits="userSpaceOnUse">
<stop offset="0.00638522" stop-color="#82E7D7"/>
<stop offset="0.3649" stop-color="#72C9BE"/>
<stop offset="0.5239" stop-color="#64B0B3"/>
<stop offset="1" stop-color="#3C6A95"/>
</linearGradient>
<clipPath id="clip0_3_4">
<rect width="143.9" height="40.9" fill="white"/>
</clipPath>
</defs>
</svg>
